#!OML:ASF E:\acrobat2\Project_11_07_03\Capture day 1\Session 1\Acrobat.ASF
:FULLY-SPECIFIED
:DEGREES
158
root 10.013 21.558 -18.8813 4.07199 2.41109 -0.761703
lowerback -8.60518 -0.845077 -0.689564
upperback -1.37483 -1.04872 -0.277722
thorax 3.406 -0.526988 -0.0189388
lowerneck 4.21039 -11.7089 -7.41903
upperneck 3.1105 -16.1396 8.34173
head 1.69135 -8.14778 3.79681
rclavicle 5.71506e-016 4.77083e-015
rhumerus -39.889 -6.54371 -81.6208
rradius 24.0192
rwrist 6.63899
rhand -3.9514 -26.4908
rfingers 7.12502
rthumb 21.8006 -55.2829
lclavicle 5.71506e-016 4.77083e-015
lhumerus -33.4512 -1.65116 85.476
lradius 23.1072
lwrist 7.36448
lhand -6.85808 -13.8108
lfingers 7.12502
lthumb 19.0073 15.2804
rfemur 5.76482 7.35821 19.8311
rtibia -2.11652
rfoot -16.9287 -13.1032
rtoes 19.4832
lfemur 3.01024 -4.47788 -14.8413
ltibia 0.974524
lfoot -8.19296 -2.31523
ltoes 4.56345
159
root 10.0141 21.5565 -18.8896 4.08482 2.36928 -0.782971
lowerback -8.6107 -0.827974 -0.639931
upperback -1.38878 -1.031 -0.266632
thorax 3.39384 -0.517638 -0.0332831
lowerneck 4.17888 -11.7075 -7.48711
upperneck 3.15127 -16.1415 8.35353
head 1.71816 -8.14865 3.80838
rclavicle -2.3059e-014 -1.8487e-014
rhumerus -39.9642 -6.38231 -81.6919
rradius 24.1357
rwrist 6.4742
rhand -3.92059 -26.6063
rfingers 7.12502
rthumb 21.8302 -55.395
lclavicle -2.3059e-014 -1.8487e-014
lhumerus -33.4766 -1.60533 85.4751
lradius 23.1169
lwrist 7.28696
lhand -6.81555 -13.9289
lfingers 7.12502
lthumb 19.0482 15.1584
rfemur 5.70553 7.378 19.8362
rtibia -2.11513
rfoot -16.9272 -13.1001
rtoes 19.3495
lfemur 2.96186 -4.49725 -14.8249
ltibia 1.00249
lfoot -8.26659 -2.29407
ltoes 4.45537
160
root 10.0149 21.5551 -18.8976 4.09181 2.34041 -0.78153
lowerback -8.60969 -0.818254 -0.619448
upperback -1.41134 -1.02031 -0.260729
thorax 3.3696 -0.512064 -0.0372315
lowerneck 4.227 -11.682 -7.61066
upperneck 3.15877 -16.1191 8.44614
head 1.73126 -8.14 3.86436
rclavicle -9.16894e-015 -2.38542e-015
rhumerus -40.061 -6.23819 -81.7518
rradius 24.2493
rwrist 6.33008
rhand -3.88497 -26.7054
rfingers 7.12502
rthumb 21.8644 -55.4901
lclavicle -9.16894e-015 -2.38542e-015
lhumerus -33.5134 -1.56416 85.4728
lradius 23.1122
lwrist 7.26839
lhand -6.75199 -13.9655
lfingers 7.12502
lthumb 19.1093 15.1157
rfemur 5.66631 7.41911 19.8241
rtibia -2.12599
rfoot -16.9414 -13.1174
rtoes 19.3261
lfemur 2.92355 -4.49761 -14.8305
ltibia 1.02007
lfoot -8.313 -2.29577
ltoes 4.37127
161
root 10.0151 21.554 -18.9055 4.0855 2.33095 -0.763267
lowerback -8.59553 -0.812925 -0.621225
upperback -1.43763 -1.01321 -0.263695
thorax 3.33443 -0.508466 -0.0380175
lowerneck 4.3402 -11.64 -7.75023
upperneck 3.13813 -16.0795 8.58849
head 1.72853 -8.12461 3.94643
rclavicle -2.12327e-014 -1.63003e-014
rhumerus -40.1651 -6.14954 -81.7888
rradius 24.3299
rwrist 6.24563
rhand -3.86898 -26.7457
rfingers 7.12502
rthumb 21.8798 -55.5286
lclavicle -2.12327e-014 -1.63003e-014
lhumerus -33.5603 -1.54364 85.4674
lradius 23.0974
lwrist 7.29889
lhand -6.66866 -13.9104
lfingers 7.12502
lthumb 19.1895 15.1629
rfemur 5.65662 7.47173 19.8032
rtibia -2.14608
rfoot -16.9811 -13.1461
rtoes 19.4365
lfemur 2.90199 -4.46831 -14.8483
ltibia 1.02998
lfoot -8.3204 -2.33302
ltoes 4.31487
162
root 10.0147 21.5532 -18.9134 4.06517 2.34626 -0.730685
lowerback -8.56626 -0.812143 -0.64085
upperback -1.46212 -1.01024 -0.277659
thorax 3.29284 -0.507065 -0.0404024
lowerneck 4.4675 -11.5852 -7.87405
upperneck 3.12463 -16.0241 8.74277
head 1.72384 -8.10154 4.03175
rclavicle -1.05604e-014 -1.41137e-014
rhumerus -40.2579 -6.13835 -81.7963
rradius 24.3574
rwrist 6.24613
rhand -3.85588 -26.7126
rfingers 7.12502
rthumb 21.8924 -55.494
lclavicle -1.05604e-014 -1.41137e-014
lhumerus -33.6122 -1.54113 85.4544
lradius 23.073
lwrist 7.35083
lhand -6.58436 -13.798
lfingers 7.12502
lthumb 19.2705 15.2672
rfemur 5.67227 7.51682 19.7732
rtibia -2.16253
rfoot -17.0492 -13.1707
rtoes 19.6562
lfemur 2.89441 -4.41089 -14.8752
ltibia 1.03794
lfoot -8.28965 -2.41475
ltoes 4.2775
163
root 10.014 21.5528 -18.9213 4.03497 2.3864 -0.691481
lowerback -8.53104 -0.813529 -0.666105
upperback -1.47663 -1.0093 -0.302059
thorax 3.25821 -0.506701 -0.050646
lowerneck 4.56467 -11.544 -7.94205
upperneck 3.12214 -15.9817 8.8528
head 1.71948 -8.08365 4.08973
rclavicle -1.06847e-015 -6.75868e-015
rhumerus -40.3207 -6.20646 -81.7765
rradius 24.3335
rwrist 6.32101
rhand -3.84094 -26.6201
rfingers 7.12502
rthumb 21.9067 -55.3998
lclavicle -1.06847e-015 -6.75868e-015
lhumerus -33.6541 -1.55998 85.437
lradius 23.0412
lwrist 7.40088
lhand -6.50556 -13.656
lfingers 7.12502
lthumb 19.3463 15.4017
rfemur 5.70366 7.53088 19.7369
rtibia -2.16256
rfoot -17.1405 -13.1679
rtoes 19.9542
lfemur 2.89485 -4.32942 -14.9034
ltibia 1.04672
lfoot -8.22566 -2.53989
ltoes 4.23414
164
root 10.013 21.5525 -18.9289 4.00013 2.44402 -0.663
lowerback -8.4975 -0.815105 -0.681311
upperback -1.48014 -1.00944 -0.327683
thorax 3.23572 -0.506788 -0.0680495
lowerneck 4.60416 -11.5142 -7.96213
upperneck 3.16321 -15.9496 8.90442
head 1.73032 -8.06876 4.11375
rclavicle -3.23025e-015 9.93923e-015
rhumerus -40.3466 -6.32985 -81.7352
rradius 24.2666
rwrist 6.44105
rhand -3.81753 -26.509
rfingers 7.12502
rthumb 21.9292 -55.2861
lclavicle -3.23025e-015 9.93923e-015
lhumerus -33.6776 -1.59067 85.4203
lradius 22.9912
lwrist 7.42754
lhand -6.4398 -13.5372
lfingers 7.12502
lthumb 19.4095 15.514
rfemur 5.73868 7.51306 19.7123
rtibia -2.15003
rfoot -17.2306 -13.1494
rtoes 20.2362
lfemur 2.8973 -4.23229 -14.9132
ltibia 1.05516
lfoot -8.13608 -2.69639
ltoes 4.21357
165
root 10.0118 21.5524 -18.9366 3.96491 2.50797 -0.658543
lowerback -8.4663 -0.815418 -0.676602
upperback -1.47577 -1.00991 -0.345611
thorax 3.22247 -0.506893 -0.0888353
lowerneck 4.58651 -11.5148 -7.92818
upperneck 3.23414 -15.9511 8.8716
head 1.75077 -8.06837 4.0932
rclavicle -5.08143e-015 3.37934e-015
rhumerus -40.3422 -6.47648 -81.6823
rradius 24.1795
rwrist 6.57293
rhand -3.76684 -26.4321
rfingers 7.12502
rthumb 21.9778 -55.2035
lclavicle -5.08143e-015 3.37934e-015
lhumerus -33.6765 -1.62374 85.4109
lradius 22.9128
lwrist 7.43498
lhand -6.40829 -13.4762
lfingers 7.12502
lthumb 19.4398 15.572
rfemur 5.76558 7.48141 19.7159
rtibia -2.13135
rfoot -17.3024 -13.1352
rtoes 20.4502
lfemur 2.89492 -4.13044 -14.8895
ltibia 1.06666
lfoot -8.03752 -2.86558
ltoes 4.23311
166
root 10.0106 21.5524 -18.9443 3.93176 2.57039 -0.67115
lowerback -8.43612 -0.815368 -0.659557
upperback -1.46539 -1.01129 -0.354616
thorax 3.21598 -0.507374 -0.107505
lowerneck 4.52451 -11.5445 -7.85936
upperneck 3.31485 -15.9854 8.77396
head 1.77555 -8.0828 4.03969
rclavicle -1.42876e-015 5.96354e-016
rhumerus -40.3174 -6.60384 -81.6368
rradius 24.1016
rwrist 6.675
rhand -3.71373 -26.4003
rfingers 7.12502
rthumb 22.0288 -55.1658
lclavicle -1.42876e-015 5.96354e-016
lhumerus -33.6527 -1.66295 85.4165
lradius 22.8192
lwrist 7.44743
lhand -6.4183 -13.453
lfingers 7.12502
lthumb 19.4302 15.5962
rfemur 5.78348 7.45006 19.7398
rtibia -2.11416
rfoot -17.35 -13.1344
rtoes 20.5789
lfemur 2.88512 -4.03291 -14.8436
ltibia 1.08444
lfoot -7.94403 -3.02968
ltoes 4.28184
167
root 10.0097 21.5523 -18.9519 3.90158 2.6252 -0.687041
lowerback -8.41109 -0.819814 -0.643424
upperback -1.45098 -1.01876 -0.355605
thorax 3.2167 -0.510942 -0.11817
lowerneck 4.44922 -11.5873 -7.78243
upperneck 3.38458 -16.0342 8.64603
head 1.79641 -8.10415 3.97341
rclavicle 3.72721e-015 -2.98177e-015
rhumerus -40.28 -6.67439 -81.6127
rradius 24.0452
rwrist 6.72922
rhand -3.66767 -26.407
rfingers 7.12502
rthumb 22.0731 -55.1672
lclavicle 3.72721e-015 -2.98177e-015
lhumerus -33.6211 -1.69174 85.4333
lradius 22.7328
lwrist 7.46868
lhand -6.47038 -13.4515
lfingers 7.12502
lthumb 19.3801 15.6028
rfemur 5.79354 7.4165 19.7642
rtibia -2.10301
rfoot -17.364 -13.1432
rtoes 20.6086
lfemur 2.8696 -3.94741 -14.7962
ltibia 1.10564
lfoot -7.86168 -3.17505
ltoes 4.36847
168
root 10.0089 21.5521 -18.9592 3.87392 2.66784 -0.697444
lowerback -8.39933 -0.83206 -0.636361
upperback -1.43199 -1.03584 -0.350927
thorax 3.22983 -0.519413 -0.1192
lowerneck 4.37985 -11.6231 -7.72452
upperneck 3.44096 -16.0745 8.53401
head 1.81428 -8.12172 3.91713
rclavicle -9.20621e-015 -1.51076e-014
rhumerus -40.2382 -6.68123 -81.6138
rradius 24.0185
rwrist 6.74785
rhand -3.61677 -26.4552
rfingers 7.12502
rthumb 22.1219 -55.2096
lclavicle -9.20621e-015 -1.51076e-014
lhumerus -33.593 -1.69296 85.4514
lradius 22.6742
lwrist 7.4938
lhand -6.55615 -13.4577
lfingers 7.12502
lthumb 19.2977 15.6048
rfemur 5.79674 7.37959 19.7775
rtibia -2.09619
rfoot -17.3481 -13.1573
rtoes 20.5476
lfemur 2.84969 -3.87615 -14.7598
ltibia 1.13111
lfoot -7.79461 -3.29267
ltoes 4.469
169
root 10.0081 21.5517 -18.9665 3.84741 2.70229 -0.695767
lowerback -8.39644 -0.852578 -0.647728
upperback -1.41123 -1.06225 -0.344118
thorax 3.25015 -0.53273 -0.108868
lowerneck 4.321 -11.6453 -7.68888
upperneck 3.47259 -16.098 8.45616
head 1.826 -8.13156 3.87855
rclavicle 1.80646e-014 2.06736e-014
rhumerus -40.205 -6.64649 -81.6312
rradius 24.0224
rwrist 6.75892
rhand -3.57122 -26.5327
rfingers 7.12502
rthumb 22.1657 -55.2819
lclavicle 1.80646e-014 2.06736e-014
lhumerus -33.5804 -1.66342 85.4627
lradius 22.6551
lwrist 7.50882
lhand -6.66227 -13.4601
lfingers 7.12502
lthumb 19.1956 15.6126
rfemur 5.79928 7.35485 19.7773
rtibia -2.09728
rfoot -17.3195 -13.1951
rtoes 20.3909
lfemur 2.82424 -3.81237 -14.7388
ltibia 1.16608
lfoot -7.7399 -3.38863
ltoes 4.54377
